<svg version="1.1" xmlns="http://www.w3.org/2000/svg" style="display: block;" viewBox="0 0 2048 2048" width="1024" height="1024" preserveAspectRatio="none">
<path transform="translate(0,0)" fill="rgb(204,203,203)" d="M 770.204 950.39 C 789.681 952.176 834.07 950.937 855.887 950.931 C 911.735 951.14 967.584 950.855 1023.43 950.076 C 1022.03 965.624 1023 995.006 1023.08 1011.49 C 1040.95 1013.95 1080.55 1012.86 1100.31 1012.83 C 1150.09 1012.43 1199.88 1012.44 1249.67 1012.84 C 1259.1 1012.97 1292.88 1011.76 1298.74 1012.77 C 1309.21 1027.18 1319.69 1043.04 1329.38 1058.01 C 1368.23 1118.08 1410.33 1176.46 1449.21 1236.45 C 1465.28 1261.38 1481.49 1286.23 1497.82 1310.99 C 1506.84 1324.75 1516.98 1340.95 1526.64 1354.11 C 1470.23 1356.72 1412.16 1353.8 1355.59 1354.92 C 1346.93 1355.09 1337.46 1355.08 1328.82 1354.84 C 1302.37 1312.67 1272.88 1270.36 1245.28 1228.76 C 1229.27 1204.65 1208.05 1169.27 1189.97 1148.27 C 1190.64 1193.32 1190.69 1238.38 1190.14 1283.43 C 1190 1306.95 1190.77 1331.45 1190.09 1354.85 C 1152.45 1354.86 1110.75 1355.62 1073.49 1354.28 C 1060.94 1356.14 1023.03 1354.61 1008.05 1354.59 L 859.889 1354.67 L 859.988 1187.68 C 861.73 1167.22 860.655 1128.05 860.658 1106.11 C 831.781 1106.14 798.44 1105.24 769.955 1106.41 L 770.204 950.39 z"/>
<path transform="translate(0,0)" fill="rgb(126,125,125)" d="M 770.204 950.39 C 789.681 952.176 834.07 950.937 855.887 950.931 C 911.735 951.14 967.584 950.855 1023.43 950.076 C 1022.03 965.624 1023 995.006 1023.08 1011.49 L 1023.16 1354.31 C 1039.93 1353.95 1056.71 1353.94 1073.49 1354.28 C 1060.94 1356.14 1023.03 1354.61 1008.05 1354.59 L 859.889 1354.67 L 859.988 1187.68 C 861.73 1167.22 860.655 1128.05 860.658 1106.11 C 831.781 1106.14 798.44 1105.24 769.955 1106.41 L 770.204 950.39 z"/>
<path transform="translate(0,0)" fill="rgb(6,83,96)" d="M 655.499 693.386 C 668.785 692.709 686.005 693.154 699.511 693.145 L 778.775 693.116 L 1023.01 693.037 L 1022.94 858.918 L 839.62 858.938 C 799.618 858.824 755.423 857.872 715.657 858.992 C 708.101 866.132 695.564 876.655 688.992 883.447 L 689.267 1079.1 L 689.268 1133.77 C 689.308 1141.72 689.882 1157.2 689.12 1164.23 C 697.205 1171.04 707.86 1181.17 715.551 1187.21 L 816.008 1186.98 C 824.528 1186.97 853.748 1186.45 859.988 1187.68 L 859.889 1354.67 C 850.716 1354.37 840.675 1354.44 831.441 1354.6 C 773.303 1355.62 714.434 1353.25 656.385 1354.34 C 623.903 1332.67 590.99 1306.92 558.44 1284.81 C 546.254 1276.53 534.713 1267.39 522.168 1259.46 L 522.073 795.745 C 541.047 784.45 568.874 760.751 586.949 746.994 C 609.711 729.67 633.282 711.345 655.499 693.386 z"/>
<path transform="translate(0,0)" fill="rgb(251,197,19)" d="M 1305.38 693.179 C 1347.75 692.683 1390.13 692.526 1432.5 692.709 C 1454.47 692.752 1480.11 693.423 1501.7 692.119 C 1496.28 702.244 1489.16 712.268 1482.89 721.998 L 1450.02 773.486 L 1355.63 923.526 C 1338.15 951.013 1314.34 985.596 1298.74 1012.77 C 1292.88 1011.76 1259.1 1012.97 1249.67 1012.84 C 1199.88 1012.44 1150.09 1012.43 1100.31 1012.83 C 1080.55 1012.86 1040.95 1013.95 1023.08 1011.49 C 1023 995.006 1022.03 965.624 1023.43 950.076 C 1024.04 945.355 1023.37 925.499 1023.3 919.233 L 1022.94 858.918 L 1023.01 693.037 L 1189.66 693.026 C 1188.73 710.652 1188.79 730.818 1189.23 748.503 C 1190.29 791.712 1188.39 836.267 1190.13 879.34 C 1209.15 853.963 1229.83 815.581 1246.86 787.99 C 1266.21 756.634 1286.97 724.891 1305.38 693.179 z"/>
</svg>